<mxfile host="app.diagrams.net" modified="2022-11-30T07:59:34.809Z" agent="5.0 (Windows NT 6.1; Win64; x64) AppleWebKit/537.36 (KHTML, like Gecko) Chrome/107.0.0.0 Safari/537.36" etag="6nes6uDYPXqrYAW1M8No" version="20.6.0" type="github">
  <diagram id="HY0pqPYRyCrweUS_he74" name="第 1 页">
    <mxGraphModel dx="1422" dy="801" grid="1" gridSize="10" guides="1" tooltips="1" connect="1" arrows="1" fold="1" page="1" pageScale="1" pageWidth="827" pageHeight="1169" math="0" shadow="0">
      <root>
        <mxCell id="0" />
        <mxCell id="1" parent="0" />
        <mxCell id="D0u8hB3NDwHhB4EH-DEw-4" style="edgeStyle=orthogonalEdgeStyle;rounded=0;orthogonalLoop=1;jettySize=auto;html=1;exitX=1;exitY=0.5;exitDx=0;exitDy=0;entryX=0;entryY=0.5;entryDx=0;entryDy=0;" edge="1" parent="1" source="B4BihGP7eycOh45Y7CtC-1" target="D0u8hB3NDwHhB4EH-DEw-3">
          <mxGeometry relative="1" as="geometry" />
        </mxCell>
        <mxCell id="B4BihGP7eycOh45Y7CtC-1" value="main" style="whiteSpace=wrap;html=1;aspect=fixed;fillColor=#dae8fc;strokeColor=#6c8ebf;" parent="1" vertex="1">
          <mxGeometry x="60" y="170" width="90" height="90" as="geometry" />
        </mxCell>
        <mxCell id="D0u8hB3NDwHhB4EH-DEw-3" value="start" style="whiteSpace=wrap;html=1;" vertex="1" parent="1">
          <mxGeometry x="280" y="120" width="140" height="80" as="geometry" />
        </mxCell>
        <mxCell id="D0u8hB3NDwHhB4EH-DEw-5" value="Wait" style="whiteSpace=wrap;html=1;" vertex="1" parent="1">
          <mxGeometry x="280" y="290" width="140" height="80" as="geometry" />
        </mxCell>
        <mxCell id="D0u8hB3NDwHhB4EH-DEw-7" value="SocketWork" style="rounded=0;whiteSpace=wrap;html=1;" vertex="1" parent="1">
          <mxGeometry x="100" y="490" width="120" height="60" as="geometry" />
        </mxCell>
        <mxCell id="D0u8hB3NDwHhB4EH-DEw-8" value="Worker" style="rounded=0;whiteSpace=wrap;html=1;" vertex="1" parent="1">
          <mxGeometry x="560" y="310" width="120" height="60" as="geometry" />
        </mxCell>
        <mxCell id="D0u8hB3NDwHhB4EH-DEw-10" value="SocketWork::OnAccept" style="whiteSpace=wrap;html=1;rounded=0;" vertex="1" parent="1">
          <mxGeometry x="270" y="430" width="160" height="60" as="geometry" />
        </mxCell>
        <mxCell id="D0u8hB3NDwHhB4EH-DEw-13" value="" style="strokeWidth=2;html=1;shape=mxgraph.flowchart.annotation_2;align=left;labelPosition=right;pointerEvents=1;" vertex="1" parent="1">
          <mxGeometry x="220" y="470" width="50" height="100" as="geometry" />
        </mxCell>
        <mxCell id="D0u8hB3NDwHhB4EH-DEw-14" value="SocketWork::OnRW" style="whiteSpace=wrap;html=1;rounded=0;" vertex="1" parent="1">
          <mxGeometry x="270" y="540" width="160" height="60" as="geometry" />
        </mxCell>
        <mxCell id="D0u8hB3NDwHhB4EH-DEw-28" value="Worker" style="ellipse;whiteSpace=wrap;html=1;fontSize=12;" vertex="1" parent="1">
          <mxGeometry x="570" y="930" width="120" height="80" as="geometry" />
        </mxCell>
        <mxCell id="D0u8hB3NDwHhB4EH-DEw-29" value="SocketWorker" style="ellipse;whiteSpace=wrap;html=1;fontSize=12;" vertex="1" parent="1">
          <mxGeometry x="1030" y="930" width="120" height="80" as="geometry" />
        </mxCell>
        <mxCell id="D0u8hB3NDwHhB4EH-DEw-30" value="Worker" style="ellipse;whiteSpace=wrap;html=1;fontSize=12;" vertex="1" parent="1">
          <mxGeometry x="870" y="930" width="120" height="80" as="geometry" />
        </mxCell>
        <mxCell id="D0u8hB3NDwHhB4EH-DEw-31" value="Worker" style="ellipse;whiteSpace=wrap;html=1;fontSize=12;" vertex="1" parent="1">
          <mxGeometry x="720" y="930" width="120" height="80" as="geometry" />
        </mxCell>
        <mxCell id="D0u8hB3NDwHhB4EH-DEw-47" value="" style="edgeStyle=orthogonalEdgeStyle;rounded=0;orthogonalLoop=1;jettySize=auto;html=1;fontSize=12;" edge="1" parent="1" source="D0u8hB3NDwHhB4EH-DEw-32" target="D0u8hB3NDwHhB4EH-DEw-37">
          <mxGeometry relative="1" as="geometry" />
        </mxCell>
        <mxCell id="D0u8hB3NDwHhB4EH-DEw-46" value="" style="edgeStyle=orthogonalEdgeStyle;rounded=0;orthogonalLoop=1;jettySize=auto;html=1;fontSize=12;" edge="1" parent="1" source="D0u8hB3NDwHhB4EH-DEw-33" target="D0u8hB3NDwHhB4EH-DEw-44">
          <mxGeometry relative="1" as="geometry" />
        </mxCell>
        <mxCell id="D0u8hB3NDwHhB4EH-DEw-37" value="Listen" style="ellipse;whiteSpace=wrap;html=1;fontSize=12;" vertex="1" parent="1">
          <mxGeometry x="260" y="793.75" width="120" height="80" as="geometry" />
        </mxCell>
        <mxCell id="D0u8hB3NDwHhB4EH-DEw-40" value="Conn" style="swimlane;fontStyle=0;childLayout=stackLayout;horizontal=1;startSize=26;fillColor=none;horizontalStack=0;resizeParent=1;resizeParentMax=0;resizeLast=0;collapsible=1;marginBottom=0;fontSize=12;" vertex="1" parent="1">
          <mxGeometry x="100" y="710" width="140" height="104" as="geometry">
            <mxRectangle x="280" y="710" width="70" height="30" as="alternateBounds" />
          </mxGeometry>
        </mxCell>
        <mxCell id="D0u8hB3NDwHhB4EH-DEw-41" value="+ type: uint8_t" style="text;strokeColor=none;fillColor=none;align=left;verticalAlign=top;spacingLeft=4;spacingRight=4;overflow=hidden;rotatable=0;points=[[0,0.5],[1,0.5]];portConstraint=eastwest;fontSize=12;" vertex="1" parent="D0u8hB3NDwHhB4EH-DEw-40">
          <mxGeometry y="26" width="140" height="26" as="geometry" />
        </mxCell>
        <mxCell id="D0u8hB3NDwHhB4EH-DEw-42" value="+ fd: int" style="text;strokeColor=none;fillColor=none;align=left;verticalAlign=top;spacingLeft=4;spacingRight=4;overflow=hidden;rotatable=0;points=[[0,0.5],[1,0.5]];portConstraint=eastwest;fontSize=12;" vertex="1" parent="D0u8hB3NDwHhB4EH-DEw-40">
          <mxGeometry y="52" width="140" height="26" as="geometry" />
        </mxCell>
        <mxCell id="D0u8hB3NDwHhB4EH-DEw-43" value="+ serviceId: uint32_t" style="text;strokeColor=none;fillColor=none;align=left;verticalAlign=top;spacingLeft=4;spacingRight=4;overflow=hidden;rotatable=0;points=[[0,0.5],[1,0.5]];portConstraint=eastwest;fontSize=12;" vertex="1" parent="D0u8hB3NDwHhB4EH-DEw-40">
          <mxGeometry y="78" width="140" height="26" as="geometry" />
        </mxCell>
        <mxCell id="D0u8hB3NDwHhB4EH-DEw-44" value="Client" style="ellipse;whiteSpace=wrap;html=1;fontSize=12;" vertex="1" parent="1">
          <mxGeometry x="260" y="887.5" width="120" height="75" as="geometry" />
        </mxCell>
        <mxCell id="D0u8hB3NDwHhB4EH-DEw-45" value="Client" style="ellipse;whiteSpace=wrap;html=1;fontSize=12;" vertex="1" parent="1">
          <mxGeometry x="260" y="980" width="120" height="80" as="geometry" />
        </mxCell>
        <mxCell id="D0u8hB3NDwHhB4EH-DEw-49" value="" style="group" vertex="1" connectable="0" parent="1">
          <mxGeometry x="10" y="840" width="140" height="190" as="geometry" />
        </mxCell>
        <mxCell id="D0u8hB3NDwHhB4EH-DEw-32" value="fd" style="rounded=0;whiteSpace=wrap;html=1;fontSize=12;" vertex="1" parent="D0u8hB3NDwHhB4EH-DEw-49">
          <mxGeometry width="140" height="47.5" as="geometry" />
        </mxCell>
        <mxCell id="D0u8hB3NDwHhB4EH-DEw-33" value="fd" style="rounded=0;whiteSpace=wrap;html=1;fontSize=12;" vertex="1" parent="D0u8hB3NDwHhB4EH-DEw-49">
          <mxGeometry y="47.5" width="140" height="47.5" as="geometry" />
        </mxCell>
        <mxCell id="D0u8hB3NDwHhB4EH-DEw-34" value="fd" style="rounded=0;whiteSpace=wrap;html=1;fontSize=12;" vertex="1" parent="D0u8hB3NDwHhB4EH-DEw-49">
          <mxGeometry y="95" width="140" height="47.5" as="geometry" />
        </mxCell>
        <mxCell id="D0u8hB3NDwHhB4EH-DEw-35" value="fd" style="rounded=0;whiteSpace=wrap;html=1;fontSize=12;" vertex="1" parent="D0u8hB3NDwHhB4EH-DEw-49">
          <mxGeometry y="142.5" width="140" height="47.5" as="geometry" />
        </mxCell>
        <mxCell id="D0u8hB3NDwHhB4EH-DEw-50" value="" style="edgeStyle=orthogonalEdgeStyle;rounded=0;orthogonalLoop=1;jettySize=auto;html=1;fontSize=12;" edge="1" parent="1" source="D0u8hB3NDwHhB4EH-DEw-34" target="D0u8hB3NDwHhB4EH-DEw-45">
          <mxGeometry relative="1" as="geometry" />
        </mxCell>
      </root>
    </mxGraphModel>
  </diagram>
</mxfile>
